<?xml version="1.0" standalone="no"?>
<!DOCTYPE svg PUBLIC "-//W3C//DTD SVG 20010904//EN"
 "http://www.w3.org/TR/2001/REC-SVG-20010904/DTD/svg10.dtd">
<svg version="1.0" xmlns="http://www.w3.org/2000/svg"
 width="104.000000pt" height="104.000000pt" viewBox="0 0 104.000000 104.000000"
 preserveAspectRatio="xMidYMid meet">
<metadata>
Created by potrace 1.14, written by Peter Selinger 2001-2017
</metadata>
<g transform="translate(0.000000,104.000000) scale(0.100000,-0.100000)"
fill="#000000" stroke="none">
<path d="M161 966 c-9 -11 -10 -20 -1 -35 10 -19 20 -21 103 -21 l92 -1 -49
-43 -48 -43 -118 0 c-65 0 -123 -3 -129 -7 -15 -10 -14 -41 2 -53 6 -6 52 -11
101 -12 49 0 91 -3 94 -6 3 -2 0 -10 -5 -17 -22 -27 -46 -124 -48 -191 -3 -82
12 -151 46 -222 13 -27 25 -53 27 -57 2 -3 -18 -5 -43 -3 -35 3 -51 -1 -65
-15 -22 -22 -18 -46 8 -52 9 -2 51 -4 93 -3 69 0 78 -2 105 -27 l29 -28 -167
0 c-168 0 -179 -2 -184 -37 -5 -32 24 -34 358 -31 320 3 335 4 389 27 118 48
217 152 260 271 20 53 24 84 23 170 0 99 -2 109 -36 183 -64 135 -183 232
-317 257 -29 5 -156 10 -281 10 -186 0 -230 -3 -239 -14z m535 -181 c58 -24
108 -70 140 -127 26 -47 29 -63 29 -138 0 -75 -3 -91 -29 -138 -134 -241 -482
-167 -511 110 -22 208 184 371 371 293z"/>
<path d="M494 705 c-39 -23 -74 -63 -74 -83 0 -5 16 -14 36 -20 32 -10 39 -8
72 16 27 20 37 34 35 52 0 14 -1 33 -2 43 -1 23 -18 21 -67 -8z"/>
<path d="M630 688 c0 -37 5 -47 34 -70 31 -25 38 -26 68 -16 18 6 37 14 41 18
20 17 -92 110 -133 110 -5 0 -10 -19 -10 -42z"/>
<path d="M563 558 c-32 -41 -12 -88 38 -88 41 0 59 38 35 75 -18 27 -57 34
-73 13z"/>
<path d="M393 497 c5 -56 42 -131 59 -121 5 3 18 19 28 36 15 25 16 35 5 71
-9 33 -19 43 -46 53 -51 19 -52 18 -46 -39z"/>
<path d="M753 538 c-25 -8 -34 -19 -46 -54 -14 -42 -13 -45 11 -79 l26 -36 18
23 c22 28 37 72 40 117 3 39 -4 43 -49 29z"/>
<path d="M532 370 c-12 -16 -22 -34 -22 -39 0 -12 63 -31 88 -27 96 17 93 16
81 37 -24 46 -43 59 -84 59 -34 0 -45 -5 -63 -30z"/>
</g>
</svg>
